<svg viewBox="0 0 24 24" xmlns="http://www.w3.org/2000/svg" width="24" height="24" fill="none"><style>@keyframes ornament{to{stroke-dashoffset:10}}</style><path stroke="#265BFF" stroke-linecap="round" stroke-width="1.5" d="M6.5 9.637l1.67 1.486a2 2 0 002.66 0l.34-.303a2 2 0 012.66 0l.34.303a2 2 0 002.66 0l1.67-1.486m-12 6.735l1.67-1.487a2 2 0 012.66 0l.34.304a2 2 0 002.66 0l.34-.304a2 2 0 012.66 0l1.67 1.487" style="animation:ornament 1s linear infinite" stroke-dasharray="1" stroke-dashoffset="1"/><circle cx="12.5" cy="13" r="7" stroke="#0A0A30" stroke-width="1.5"/><path stroke="#0A0A30" stroke-linecap="round" stroke-width="1.5" d="M10.5 6V4.588a1 1 0 011-1h2a1 1 0 011 1V6"/><style>*{animation:none!important;transition:none!important;stroke-dashoffset:0!important}</style></svg>