<svg viewBox="0 0 24 24" xmlns="http://www.w3.org/2000/svg" width="24" height="24" fill="none"><style>@keyframes airpod{0%{transform:scale(.2);opacity:.8}80%{transform:scale(1.2);opacity:0}to{transform:scale(2.2);opacity:0}}</style><rect width="14" height="14" x="5" y="5" fill="#265BFF" rx="7" style="animation:airpod 1.5s cubic-bezier(.165,.84,.44,1) infinite both;transform-origin:center center"/><path fill="#0A0A30" d="M9.392 7.004a2.104 2.104 0 00-1.52.58l-.544.543a.677.677 0 00-.181.507v.869a.797.797 0 00.036.29c.034.103.082.2.145.29a.65.65 0 00.181.253 2.507 2.507 0 001.883.87 2.212 2.212 0 002.282-2.102 2.213 2.213 0 00-2.282-2.1zM8.125 9.72a.17.17 0 01-.181.181H7.87a.17.17 0 01-.18-.18V8.488a.17.17 0 01.18-.181h.073a.17.17 0 01.18.18V9.72zm2.064-.29h-.616a.333.333 0 01-.326-.362.326.326 0 01.326-.326h.652a.333.333 0 01.326.362.362.362 0 01-.362.326zm-.724 6.994a.525.525 0 00.507.54h.616a.53.53 0 00.507-.544v-5.25a3.238 3.238 0 01-1.63.543v4.712zm7.207-8.297l-.543-.544a1.967 1.967 0 00-1.521-.58 2.213 2.213 0 00-2.282 2.101 2.213 2.213 0 002.282 2.101 2.388 2.388 0 001.883-.87c.072-.072.109-.18.181-.253a.724.724 0 00.145-.29.797.797 0 00.036-.29v-.868a.676.676 0 00-.181-.507zM14.427 9.43h-.652a.362.362 0 010-.724h.652a.333.333 0 01.325.362.3.3 0 01-.325.362zm1.883.29a.17.17 0 01-.11.17.17.17 0 01-.071.011h-.073a.17.17 0 01-.18-.18V8.488a.17.17 0 01.11-.17.17.17 0 01.07-.011h.073a.17.17 0 01.18.18V9.72zm-3.405 6.737a.532.532 0 00.544.543h.543a.532.532 0 00.543-.543v-4.745a2.673 2.673 0 01-1.63-.543v5.288z"/></svg>