<svg viewBox="0 0 24 24" width="24" height="24" fill="none" xmlns="http://www.w3.org/2000/svg"><style>@keyframes snows-ch{0%{opacity:0;transform:translateY(-10%)}50%{opacity:1}80%{opacity:.8}to{transform:translateY(10%);opacity:0}}.prefix__c-snow1{animation:snows-ch 3s infinite both}</style><path fill-rule="evenodd" clip-rule="evenodd" d="M7.691 8.811a.51.51 0 01.421-.198.51.51 0 01.44.222l1.507 2.2a.734.734 0 01-.18 1.012l1.053 1.763a.868.868 0 01-.47 1.268l.876 1.157a1.19 1.19 0 01-.949 1.908H8.51v1.366a.51.51 0 11-1.019 0v-1.366H5.61a1.19 1.19 0 01-.948-1.908l.876-1.157a.868.868 0 01-.47-1.268l1.057-1.771a.725.725 0 01-.138-1.025L7.69 8.81zm-.662 2.522l1.06-1.37.923 1.347a.738.738 0 00-.275.737l-.676.205-1.068.322.189-.316a.724.724 0 00-.153-.925zm-.812 2.541l-.157.263c.431.126.688.57.605.998l2.897-.767a.847.847 0 01.378-.231l-.702-1.176-1.19.36-1.831.553zm-.742 2.977l.34-.449a.505.505 0 00.11-.017l3.54-.937c.01.015.02.03.032.044l1.028 1.359a.17.17 0 01-.136.272H5.611a.17.17 0 01-.136-.272zM16.193 5.133a.322.322 0 01.266-.125.322.322 0 01.278.14l.953 1.39a.464.464 0 01-.114.641l.666 1.114a.549.549 0 01-.297.802l.553.732a.752.752 0 01-.6 1.206H16.71v.863a.322.322 0 11-.644 0v-.863h-1.188a.752.752 0 01-.6-1.206l.553-.732a.549.549 0 01-.297-.802l.669-1.12a.459.459 0 01-.088-.647l1.078-1.393zm-.419 1.595l.67-.866.584.851a.466.466 0 00-.174.466l-.427.13-.675.203.119-.2a.458.458 0 00-.097-.584zm-.513 1.606l-.1.166c.273.08.436.36.383.631l1.831-.485a.536.536 0 01.24-.146l-.444-.743-.752.227-1.158.35zm-.47 1.882l.216-.284a.323.323 0 00.07-.01l2.238-.593c.006.01.012.019.02.028l.65.859a.107.107 0 01-.086.172h-3.021a.107.107 0 01-.086-.172z" fill="#0A0A30"/><circle class="prefix__c-snow1" cx="10.831" cy="3.5" r=".75" fill="#265BFF"/><circle cx="14.874" cy="12.968" r=".75" fill="#265BFF" style="animation:snows-ch 3s infinite both"/><circle class="prefix__c-snow1" cx="18" cy="16.75" r=".75" fill="#265BFF"/><circle cx="19.5" cy="5" r=".75" fill="#265BFF" style="animation:snows-ch 3s infinite both"/><circle class="prefix__c-snow1" cx="3.75" cy="11.468" r=".75" fill="#265BFF"/></svg>